<svg width="610" height="610" xmlns="http://www.w3.org/2000/svg" xmlns:xlink="http://www.w3.org/1999/xlink" overflow="hidden"><defs><clipPath id="clip0"><path d="M335 55 945 55 945 665 335 665Z" fill-rule="evenodd" clip-rule="evenodd"/></clipPath></defs><g clip-path="url(#clip0)" transform="translate(-335 -55)"><path d="M336 157.335C336 101.369 381.369 56 437.335 56L842.665 56C898.631 56 944 101.369 944 157.335L944 562.665C944 618.631 898.631 664 842.665 664L437.335 664C381.369 664 336 618.631 336 562.665Z" fill="#F6BF00" fill-rule="evenodd"/><path d="M451 210.001C451 188.461 468.461 171 490.001 171L789.999 171C811.539 171 829 188.461 829 210.001L829 365.999C829 387.539 811.539 405 789.999 405L490.001 405C468.461 405 451 387.539 451 365.999Z" fill="#FFFFFF" fill-rule="evenodd"/><rect x="610" y="405" width="60" height="38" fill="#FFFFFF"/><path d="M591 448.398C591 445.417 593.417 443 596.398 443L683.602 443C686.583 443 689 445.417 689 448.398L689 456.602C689 459.583 686.583 462 683.602 462L596.398 462C593.417 462 591 459.583 591 456.602Z" fill="#FFFFFF" fill-rule="evenodd"/><path d="M523 501.5C523 496.253 527.253 492 532.5 492L660.5 492C665.747 492 670 496.253 670 501.5L670 539.5C670 544.747 665.747 549 660.5 549L532.5 549C527.253 549 523 544.747 523 539.5Z" fill="#FFFFFF" fill-rule="evenodd"/><path d="M725 498.667C725 495.537 727.537 493 730.667 493L753.333 493C756.463 493 759 495.537 759 498.667L759 543.333C759 546.463 756.463 549 753.333 549L730.667 549C727.537 549 725 546.463 725 543.333Z" fill="#FFFFFF" fill-rule="evenodd"/></g></svg>